<?xml version="1.0" encoding="UTF-8"?>
<svg xmlns="http://www.w3.org/2000/svg" viewBox="0 0 128 128" width="128" height="128">
  <defs>
    <linearGradient id="bg" x1="0" x2="1" y1="0" y2="1">
      <stop offset="0" stop-color="#0b0f16"/>
      <stop offset="1" stop-color="#101a2b"/>
    </linearGradient>
    <linearGradient id="accent" x1="0" x2="0" y1="0" y2="1">
      <stop offset="0" stop-color="#6bb3ff"/>
      <stop offset="1" stop-color="#2ea05a"/>
    </linearGradient>
    <filter id="softGlow" x="-40%" y="-40%" width="180%" height="180%">
      <feGaussianBlur stdDeviation="2.2" result="b"/>
      <feColorMatrix in="b" type="matrix"
        values="1 0 0 0 0
                0 1 0 0 0
                0 0 1 0 0
                0 0 0 0.55 0" result="g"/>
      <feMerge>
        <feMergeNode in="g"/>
        <feMergeNode in="SourceGraphic"/>
      </feMerge>
    </filter>
  </defs>

  <rect x="8" y="8" width="112" height="112" rx="26" fill="url(#bg)"/>
  <rect x="8.5" y="8.5" width="111" height="111" rx="25.5" fill="none" stroke="rgba(110,179,255,0.22)"/>

  <!-- subtle grid -->
  <g opacity="0.22" stroke="rgba(210,220,235,0.38)" stroke-width="1">
    <path d="M24 40H104"/>
    <path d="M24 64H104"/>
    <path d="M24 88H104"/>
    <path d="M40 24V104"/>
    <path d="M64 24V104"/>
    <path d="M88 24V104"/>
  </g>

  <!-- chart -->
  <path d="M24 92
           C 36 92, 40 72, 52 72
           C 64 72, 64 52, 76 52
           C 90 52, 92 40, 104 40
           L 104 104
           L 24 104 Z"
        fill="rgba(107,179,255,0.13)"/>

  <path d="M24 92
           C 36 92, 40 72, 52 72
           C 64 72, 64 52, 76 52
           C 90 52, 92 40, 104 40"
        fill="none" stroke="url(#accent)" stroke-width="6" stroke-linecap="round" stroke-linejoin="round" filter="url(#softGlow)"/>

  <!-- end dot -->
  <circle cx="104" cy="40" r="6.5" fill="#2ea05a" filter="url(#softGlow)"/>
</svg>
